<?xml version="1.0" standalone="no"?>
<!DOCTYPE svg PUBLIC "-//W3C//DTD SVG 20010904//EN"
 "http://www.w3.org/TR/2001/REC-SVG-20010904/DTD/svg10.dtd">
<svg version="1.0" xmlns="http://www.w3.org/2000/svg"
 width="778.000000pt" height="268.000000pt" viewBox="0 0 778.000000 268.000000"
 preserveAspectRatio="xMidYMid meet">

<g transform="translate(0.000000,268.000000) scale(0.100000,-0.100000)"
fill="#000000" stroke="none">
<path d="M190 1355 l0 -1195 185 0 185 0 2 552 3 551 185 -213 c102 -117 233
-268 291 -334 59 -67 189 -215 289 -331 100 -116 189 -213 196 -218 7 -4 110
-6 228 -5 l216 3 -97 110 c-54 61 -185 209 -293 330 -161 183 -503 571 -640
728 l-33 38 34 42 c18 23 74 90 124 148 136 160 231 272 659 782 91 108 166
199 166 202 0 8 -416 6 -435 -2 -10 -3 -45 -41 -79 -83 -95 -120 -427 -529
-559 -690 -65 -80 -148 -182 -185 -227 -37 -45 -70 -82 -74 -83 -5 0 -8 245
-8 545 l0 545 -180 0 -180 0 0 -1195z"/>
<path d="M2165 2535 c-22 -8 -59 -34 -82 -58 -71 -76 -79 -162 -23 -251 66
-104 223 -126 317 -43 174 153 8 430 -212 352z"/>
<path d="M5605 2538 c-3 -7 -6 -196 -7 -421 l-3 -407 -54 36 c-139 94 -269
134 -437 134 -252 0 -483 -113 -642 -313 -141 -178 -207 -409 -182 -637 11
-104 49 -256 80 -326 146 -331 548 -531 914 -456 108 23 215 69 289 125 26 21
51 37 55 37 5 0 23 -33 41 -74 23 -52 39 -76 54 -80 12 -3 70 -6 130 -6 l107
0 0 1200 0 1200 -170 0 c-127 0 -172 -3 -175 -12z m-312 -1009 c355 -118 466
-633 197 -914 -134 -139 -325 -191 -500 -136 -322 101 -465 506 -288 819 122
215 358 308 591 231z"/>
<path d="M3265 1864 c-87 -19 -202 -72 -274 -126 -30 -23 -56 -37 -58 -32 -2
5 -20 41 -41 79 l-37 70 -122 3 -123 3 0 -851 0 -850 170 0 170 0 0 488 c0
268 4 513 10 546 38 234 255 393 486 356 149 -24 270 -126 327 -278 21 -55 21
-73 25 -584 l3 -528 170 0 169 0 0 545 c0 608 -3 639 -65 773 -85 181 -244
319 -435 377 -79 24 -285 29 -375 9z"/>
<path d="M6738 1870 c-252 -46 -455 -206 -582 -457 -67 -135 -81 -204 -81
-408 0 -208 15 -280 88 -419 113 -217 299 -365 537 -427 110 -29 288 -31 405
-5 170 38 347 151 440 281 45 62 115 190 115 208 0 5 -81 7 -179 5 l-179 -3
-53 -51 c-111 -104 -207 -139 -363 -132 -116 6 -184 28 -267 86 -89 62 -154
164 -174 275 l-7 37 621 0 c583 0 622 1 629 18 4 9 7 85 7 167 0 143 -2 154
-33 245 -61 176 -151 316 -267 413 -68 57 -209 127 -305 151 -76 19 -284 29
-352 16z m236 -320 c194 -28 366 -187 383 -354 l6 -56 -456 0 c-251 0 -458 4
-461 8 -9 15 24 134 51 185 56 102 198 198 320 216 80 12 80 12 157 1z"/>
<path d="M2060 1010 l0 -860 178 2 177 3 3 858 2 857 -180 0 -180 0 0 -860z"/>
</g>
</svg>
