<?xml version="1.0" encoding="UTF-8"?>
<svg id="katman_1" data-name="katman 1" xmlns="http://www.w3.org/2000/svg" version="1.1" viewBox="0 0 841.89 595.28">
  <defs>
    <style>
      .cls-1 {
        fill-rule: evenodd;
      }

      .cls-1, .cls-2 {
        fill: #111;
        stroke-width: 0px;
      }
    </style>
  </defs>
  <path class="cls-2" d="M224.44,259.08h37.1c26.82,0,33.67,15.79,33.67,28.63s-6.92,28.63-33.67,28.63h-22.92v45.17h-14.18v-102.43ZM238.69,304.25h18.75c11.29,0,22.52-2.55,22.52-16.47s-11.29-16.47-22.52-16.47h-18.75v32.93Z"/>
  <path class="cls-2" d="M313.83,258.61c5.38,0,9.75,4.23,9.81,9.41.07,5.24-4.17,9.54-9.54,9.68s-9.81-3.97-10.01-9.21c-.07-2.62.94-5.11,2.76-6.99,1.75-1.81,4.3-2.89,6.99-2.89ZM307.24,292.96h13.17v68.62h-13.17v-68.62Z"/>
  <path class="cls-2" d="M335.74,292.96h13.38v10.62h.34c4.64-8.07,13.64-12.9,23.12-12.3,13.64,0,25.41,8,25.41,26.21v44.16h-13.17v-40.46c0-12.9-7.59-17.68-16.06-17.68-11.09,0-19.56,6.92-19.56,22.85v35.29h-13.44v-68.69Z"/>
  <path class="cls-2" d="M422.37,332.07c0,11.96,11.43,19.83,23.73,19.83,7.73-.2,14.92-4.03,19.29-10.22l10.15,7.53c-7.39,9.48-19.09,14.79-31.25,14.18-22.31,0-36.16-15.59-36.16-36.03-.4-9.54,3.29-18.82,10.15-25.61,6.86-6.79,16.27-10.55,26.08-10.42,24.8,0,34.28,18.48,34.28,36.16v4.64h-56.26v-.07ZM464.58,321.66c-.34-11.43-6.86-19.83-20.3-19.83-11.49-.07-21.1,8.6-21.84,19.83h42.14Z"/>
  <path class="cls-2" d="M539.12,311.24c-4.37-5.04-10.75-7.86-17.54-7.66-14.52,0-21.98,11.43-21.98,24.33-.34,6.12,1.88,12.03,6.18,16.47s10.28,6.92,16.53,6.86c6.59.2,12.9-2.62,17.07-7.66l9.48,9.14c-6.92,7.12-16.67,10.96-26.68,10.55-9.88.47-19.49-3.09-26.48-9.95-6.99-6.79-10.75-16.2-10.28-25.81-.47-9.68,3.29-19.09,10.28-25.94,6.99-6.86,16.6-10.55,26.55-10.22,10.15-.27,19.96,3.7,27.02,10.82l-10.15,9.07Z"/>
  <path class="cls-2" d="M588.39,291.21c20.3.34,36.56,16.6,36.36,36.43s-16.8,35.76-37.17,35.62c-20.3-.13-36.76-16.2-36.76-36.03,0-9.68,3.97-18.89,11.02-25.67,7.12-6.79,16.67-10.48,26.55-10.35ZM588.39,351.16c14.18,0,23.12-9.88,23.12-23.93s-8.94-23.86-23.12-23.86-23.19,9.88-23.19,23.86,8.94,23.93,23.19,23.93Z"/>
  <path class="cls-2" d="M636.64,292.96h13.38v10.62c4.64-8.13,13.71-12.9,23.19-12.3,13.64,0,25.41,8,25.41,26.21v44.16h-13.38v-40.46c0-12.9-7.59-17.68-16-17.68-11.16,0-19.56,6.92-19.56,22.85v35.29h-12.97v-68.69h-.07Z"/>
  <path class="cls-2" d="M723.41,332.07c0,11.96,11.43,19.83,23.73,19.83,7.73-.27,14.92-4.03,19.29-10.22l10.15,7.53c-7.39,9.41-19.02,14.65-31.19,13.98-22.25,0-36.16-15.59-36.16-36.03-.4-9.54,3.29-18.89,10.15-25.67,6.86-6.86,16.33-10.55,26.15-10.35,24.8,0,34.28,18.48,34.28,36.16v4.64l-56.39.13ZM765.56,321.59c-.34-11.43-6.79-19.83-20.3-19.83-11.49-.07-21.1,8.6-21.84,19.83h42.14Z"/>
  <path class="cls-1" d="M144.19,228.84c-1.41-1.68-3.76-2.08-5.65-1.01l-1.75.94-19.02,10.82,4.44,7.8,12.37-7.06-3.02,16.53,8.8,1.61,3.09-16.6,9.14,10.89,6.86-5.78-13.85-16.53h-.07l-1.34-1.61ZM117.5,368.3c4.57,0,8.27-3.63,8.27-8.07s-3.7-8.07-8.27-8.07-8.27,3.63-8.27,8.07c-.07,4.44,3.7,8.07,8.27,8.07ZM128.59,324.01l-2.96,16.6-8.87-1.61,2.96-16.53-12.37,7.12-4.5-7.8,18.89-10.82,1.75-1.01c1.88-1.08,4.23-.67,5.65,1.01l1.34,1.61,14.05,16.47-6.86,5.85-9.07-10.89ZM135.78,284.35l-2.96,16.6-8.87-1.61,2.96-16.47-12.3,7.06-4.44-7.8,18.82-10.75v-.13h.13l1.75-1.01c1.88-1.08,4.23-.67,5.65,1.01l1.34,1.55,13.98,16.53-6.86,5.85-9.21-10.82ZM77.78,349.95h-.07l-1.81-.54c-1.95-.54-3.23-2.42-3.09-4.44l1.61-22.45,8.54.6-1.01,13.64,13.24-9.01,4.77,7.06-12.97,8.8,13.24,3.83-2.35,8.2-20.1-5.71ZM165.63,359.23l-.6,1.95c-.6,1.88-2.35,3.16-4.37,3.02l-1.88-.13-.13.07-.07-.07-20.84-1.41.54-8.54,13.85.94-9.07-12.7,6.92-4.97,9.28,13.04,4.03-13.17,8.13,2.49-5.78,19.49ZM190.09,312.99l1.01,1.81c1.01,1.81.6,4.1-1.01,5.44l-1.48,1.28v.07h-.07l-16.2,13.71-5.65-6.65,10.62-9.01-15.93-2.82,1.55-8.6,16.06,2.82-6.72-12.1,7.59-4.23,10.22,18.28ZM173.62,275.48l-14.38,7.73-4.17-7.66,14.18-7.59-12.97-5.31,3.29-8.07,19.76,8,.07-.07.07.13,1.81.74c1.95.81,3.02,2.82,2.69,4.84l-.34,2.02-3.7,20.5-8.6-1.55,2.29-13.71ZM77.11,293.5l16,2.69-1.48,8.6-16.13-2.76,6.86,12.1-7.59,4.3-10.35-18.21-1.01-1.75c-1.01-1.81-.6-4.1.94-5.44l1.48-1.28v-.07h.07l16-13.78,5.71,6.65-10.48,8.94ZM101.24,256.26l10.62,11.83-6.52,5.85-10.89-12.1-2.49,13.78-8.6-1.55,3.76-20.43.4-2.08c.34-2.02,2.08-3.49,4.1-3.56l1.88-.07.07-.07.07.07,21.37-.87.34,8.74-14.11.47Z"/>
</svg>